<svg width="36" height="39" viewBox="0 0 36 39" fill="none" xmlns="http://www.w3.org/2000/svg">
<path d="M6.53817 22.9867C6.30717 25.8275 8.43567 28.2675 11.1417 28.2675H28.7141C31.0901 28.2675 33.1691 26.2109 33.3506 23.7187L34.2416 10.6473C34.4396 7.75411 32.3606 5.40125 29.6051 5.40125H8.30369" stroke="white" stroke-width="3" stroke-miterlimit="10" stroke-linecap="round" stroke-linejoin="round"/>
<path d="M2 2.12488H4.87102C6.65302 2.12488 8.0555 3.74573 7.907 5.61058L7.082 16.1548" stroke="white" stroke-width="3" stroke-miterlimit="10" stroke-linecap="round" stroke-linejoin="round"/>
<path d="M25.5122 36.9819C26.6514 36.9819 27.5747 36.0066 27.5747 34.8034C27.5747 33.6001 26.6514 32.6248 25.5122 32.6248C24.373 32.6248 23.4497 33.6001 23.4497 34.8034C23.4497 36.0066 24.373 36.9819 25.5122 36.9819Z" stroke="#FFD200" stroke-width="3" stroke-miterlimit="10" stroke-linecap="round" stroke-linejoin="round"/>
<path d="M12.3125 36.9819C13.4516 36.9819 14.375 36.0066 14.375 34.8034C14.375 33.6001 13.4516 32.6248 12.3125 32.6248C11.1734 32.6248 10.25 33.6001 10.25 34.8034C10.25 36.0066 11.1734 36.9819 12.3125 36.9819Z" stroke="#FFD200" stroke-width="3" stroke-miterlimit="10" stroke-linecap="round" stroke-linejoin="round"/>
<path d="M13.5498 12.582H33.3498" stroke="#FFD200" stroke-width="3" stroke-miterlimit="10" stroke-linecap="round" stroke-linejoin="round"/>
</svg>
