<svg width="133" height="39" viewBox="0 0 133 39" fill="none" xmlns="http://www.w3.org/2000/svg">
<path d="M54.7619 11.7408C54.6022 12.034 54.1895 12.1076 53.9111 11.9232C53.8498 11.8827 53.7841 11.8402 53.7141 11.796C53.3781 11.572 52.9581 11.3573 52.4541 11.152C51.9688 10.9467 51.4368 10.7693 50.8581 10.62C50.2794 10.452 49.6914 10.368 49.0941 10.368C48.0488 10.368 47.2554 10.564 46.7141 10.956C46.1914 11.348 45.9301 11.8987 45.9301 12.608C45.9301 13.1493 46.0981 13.5787 46.4341 13.896C46.7701 14.2133 47.2741 14.484 47.9461 14.708C48.6181 14.932 49.4581 15.1747 50.4661 15.436C51.7728 15.7533 52.9021 16.1453 53.8541 16.612C54.8248 17.06 55.5621 17.6573 56.0661 18.404C56.5888 19.132 56.8501 20.1027 56.8501 21.316C56.8501 22.38 56.6541 23.2947 56.2621 24.06C55.8701 24.8067 55.3288 25.4133 54.6381 25.88C53.9474 26.3467 53.1634 26.692 52.2861 26.916C51.4088 27.1213 50.4754 27.224 49.4861 27.224C48.4968 27.224 47.5074 27.1213 46.5181 26.916C45.5288 26.7107 44.5768 26.4213 43.6621 26.048C42.888 25.7163 42.1674 25.331 41.5003 24.8923C41.2924 24.7556 41.2264 24.4835 41.3399 24.2621L42.537 21.9268C42.6917 21.625 43.1081 21.5492 43.3854 21.7444C43.4932 21.8202 43.6134 21.9014 43.7461 21.988C44.1754 22.2493 44.6981 22.52 45.3141 22.8C45.9301 23.0613 46.6021 23.2853 47.3301 23.472C48.0581 23.6587 48.7954 23.752 49.5421 23.752C50.5874 23.752 51.3808 23.5747 51.9221 23.22C52.4634 22.8653 52.7341 22.3613 52.7341 21.708C52.7341 21.1107 52.5194 20.644 52.0901 20.308C51.6608 19.972 51.0634 19.6827 50.2981 19.44C49.5328 19.1787 48.6274 18.8987 47.5821 18.6C46.3314 18.2453 45.2861 17.8533 44.4461 17.424C43.6061 16.976 42.9808 16.416 42.5701 15.744C42.1594 15.072 41.9541 14.232 41.9541 13.224C41.9541 11.8613 42.2714 10.7227 42.9061 9.808C43.5594 8.87466 44.4368 8.17466 45.5381 7.708C46.6394 7.22266 47.8621 6.98 49.2061 6.98C50.1394 6.98 51.0168 7.08266 51.8381 7.288C52.6781 7.49333 53.4621 7.764 54.1901 8.1C54.7628 8.3643 55.2892 8.64593 55.7695 8.94489C55.988 9.08094 56.0561 9.36448 55.933 9.59057L54.7619 11.7408Z" fill="white"/>
<path d="M67.7627 25.8235C67.8242 26.0647 67.6989 26.3146 67.4673 26.406C67.243 26.4944 66.9945 26.5897 66.7218 26.692C66.2738 26.86 65.7885 26.9907 65.2658 27.084C64.7618 27.196 64.2485 27.252 63.7258 27.252C63.0352 27.252 62.4005 27.1307 61.8218 26.888C61.2432 26.6453 60.7765 26.2627 60.4218 25.74C60.0858 25.1987 59.9178 24.4987 59.9178 23.64V15.712C59.9178 15.4359 59.694 15.212 59.4178 15.212H58.4858C58.2097 15.212 57.9858 14.9881 57.9858 14.712V12.828C57.9858 12.5519 58.2097 12.328 58.4858 12.328H59.4178C59.694 12.328 59.9178 12.1041 59.9178 11.828V8.068C59.9178 7.79186 60.1417 7.568 60.4178 7.568H63.1698C63.446 7.568 63.6698 7.79186 63.6698 8.068V11.828C63.6698 12.1041 63.8937 12.328 64.1698 12.328H66.2498C66.526 12.328 66.7498 12.5519 66.7498 12.828V14.712C66.7498 14.9881 66.526 15.212 66.2498 15.212H64.1698C63.8937 15.212 63.6698 15.4359 63.6698 15.712V22.38C63.6885 22.884 63.8285 23.248 64.0898 23.472C64.3512 23.696 64.6778 23.808 65.0698 23.808C65.4618 23.808 65.8445 23.7427 66.2178 23.612C66.3454 23.5674 66.4642 23.5249 66.5743 23.4846C66.8607 23.3798 67.1814 23.5411 67.2566 23.8366L67.7627 25.8235Z" fill="white"/>
<path d="M76.4359 27.28C75.2412 27.28 74.1679 27.084 73.2159 26.692C72.2639 26.2813 71.4519 25.7213 70.7799 25.012C70.1265 24.3027 69.6225 23.4907 69.2679 22.576C68.9132 21.6613 68.7359 20.7 68.7359 19.692C68.7359 18.6653 68.9132 17.6947 69.2679 16.78C69.6225 15.8653 70.1265 15.0533 70.7799 14.344C71.4519 13.6347 72.2639 13.084 73.2159 12.692C74.1679 12.2813 75.2412 12.076 76.4359 12.076C77.6305 12.076 78.6945 12.2813 79.6279 12.692C80.5799 13.084 81.3919 13.6347 82.0639 14.344C82.7359 15.0533 83.2399 15.8653 83.5759 16.78C83.9305 17.6947 84.1079 18.6653 84.1079 19.692C84.1079 20.7 83.9305 21.6613 83.5759 22.576C83.2399 23.4907 82.7359 24.3027 82.0639 25.012C81.4105 25.7213 80.6079 26.2813 79.6559 26.692C78.7039 27.084 77.6305 27.28 76.4359 27.28ZM72.5999 19.692C72.5999 20.5507 72.7679 21.316 73.1039 21.988C73.4399 22.6413 73.8972 23.1547 74.4759 23.528C75.0545 23.9013 75.7079 24.088 76.4359 24.088C77.1452 24.088 77.7892 23.9013 78.3679 23.528C78.9465 23.136 79.4039 22.6133 79.7399 21.96C80.0945 21.288 80.2719 20.5227 80.2719 19.664C80.2719 18.824 80.0945 18.068 79.7399 17.396C79.4039 16.724 78.9465 16.2013 78.3679 15.828C77.7892 15.4547 77.1452 15.268 76.4359 15.268C75.7079 15.268 75.0545 15.464 74.4759 15.856C73.8972 16.2293 73.4399 16.752 73.1039 17.424C72.7679 18.0773 72.5999 18.8333 72.5999 19.692Z" fill="white"/>
<path d="M93.4723 27.28C92.2777 27.28 91.2043 27.084 90.2523 26.692C89.3003 26.2813 88.4883 25.7213 87.8163 25.012C87.1443 24.284 86.6217 23.4627 86.2483 22.548C85.8937 21.6333 85.7163 20.672 85.7163 19.664C85.7163 18.2827 86.0243 17.0227 86.6403 15.884C87.275 14.7267 88.171 13.8027 89.3283 13.112C90.4857 12.4213 91.8577 12.076 93.4443 12.076C95.031 12.076 96.3937 12.4213 97.5323 13.112C98.4905 13.6932 99.2438 14.4264 99.7922 15.3116C99.9552 15.5746 99.8105 15.9104 99.5146 16.0007L96.79 16.8327C96.5686 16.9003 96.3329 16.8044 96.1947 16.6187C95.9107 16.237 95.5633 15.9361 95.1523 15.716C94.6297 15.4173 94.051 15.268 93.4163 15.268C92.707 15.268 92.0537 15.4547 91.4563 15.828C90.8777 16.1827 90.4203 16.696 90.0843 17.368C89.7483 18.0213 89.5803 18.7867 89.5803 19.664C89.5803 20.5227 89.7483 21.288 90.0843 21.96C90.439 22.6133 90.9057 23.136 91.4843 23.528C92.063 23.9013 92.707 24.088 93.4163 24.088C93.8643 24.088 94.2843 24.0133 94.6763 23.864C95.087 23.7147 95.451 23.5093 95.7683 23.248C95.9592 23.0908 96.1197 22.9201 96.2498 22.7359C96.3955 22.5296 96.6499 22.4074 96.8915 22.4812L99.5882 23.3046C99.8781 23.3931 100.024 23.7184 99.8696 23.9789C99.556 24.5067 99.1502 24.991 98.6523 25.432C98.0177 26.0107 97.2617 26.468 96.3843 26.804C95.5257 27.1213 94.555 27.28 93.4723 27.28Z" fill="white"/>
<path d="M112.734 27C112.568 27 112.413 26.9177 112.32 26.7803L108.522 21.1698C108.347 20.9109 107.98 20.8746 107.757 21.094L106.346 22.4851C106.251 22.5791 106.197 22.7073 106.197 22.8412V26.5C106.197 26.7761 105.973 27 105.697 27H102.945C102.669 27 102.445 26.7761 102.445 26.5V7.06C102.445 6.78386 102.669 6.56 102.945 6.56H105.697C105.973 6.56 106.197 6.78386 106.197 7.06V17.6307C106.197 18.0893 106.763 18.306 107.069 17.9648L111.956 12.522C112.051 12.4163 112.186 12.356 112.328 12.356H114.976C115.406 12.356 115.636 12.8629 115.352 13.186L110.879 18.2781C110.728 18.4508 110.713 18.7045 110.844 18.8933L115.928 26.2148C116.158 26.5464 115.921 27 115.517 27H112.734Z" fill="white"/>
<path d="M118.366 30.4793C118.366 30.1594 118.662 29.9222 118.976 29.9876C119.084 30.0103 119.189 30.0317 119.29 30.052C119.589 30.108 119.841 30.136 120.046 30.136C120.401 30.136 120.69 30.0427 120.914 29.856C121.157 29.688 121.39 29.3707 121.614 28.904C121.823 28.4865 122.04 27.9068 122.265 27.1651C122.297 27.0583 122.292 26.9436 122.251 26.8398L116.788 13.0117C116.659 12.6836 116.901 12.328 117.253 12.328H120.06C120.27 12.328 120.458 12.4594 120.53 12.6568L123.858 21.7913C124.021 22.2389 124.659 22.2264 124.804 21.7727L127.719 12.6754C127.785 12.4684 127.978 12.328 128.195 12.328H130.709C131.054 12.328 131.295 12.6682 131.181 12.9933L125.254 29.912C125.03 30.5653 124.685 31.1533 124.218 31.676C123.77 32.2173 123.201 32.6373 122.51 32.936C121.838 33.2533 121.082 33.412 120.242 33.412C119.944 33.412 119.645 33.384 119.346 33.328C119.149 33.3034 118.94 33.2625 118.718 33.2053C118.507 33.1508 118.366 32.9557 118.366 32.7376V30.4793Z" fill="white"/>
<path d="M6.53817 22.9867C6.30717 25.8275 8.43567 28.2675 11.1417 28.2675H28.7141C31.0901 28.2675 33.1691 26.2109 33.3506 23.7187L34.2416 10.6473C34.4396 7.75411 32.3606 5.40125 29.6051 5.40125H8.30369" stroke="white" stroke-width="3" stroke-miterlimit="10" stroke-linecap="round" stroke-linejoin="round"/>
<path d="M2 2.12488H4.87102C6.65302 2.12488 8.0555 3.74573 7.907 5.61058L7.082 16.1548" stroke="white" stroke-width="3" stroke-miterlimit="10" stroke-linecap="round" stroke-linejoin="round"/>
<path d="M25.5122 36.9819C26.6514 36.9819 27.5747 36.0066 27.5747 34.8034C27.5747 33.6001 26.6514 32.6248 25.5122 32.6248C24.373 32.6248 23.4497 33.6001 23.4497 34.8034C23.4497 36.0066 24.373 36.9819 25.5122 36.9819Z" stroke="#FFD200" stroke-width="2.5" stroke-miterlimit="10" stroke-linecap="round" stroke-linejoin="round"/>
<path d="M12.3125 36.9819C13.4516 36.9819 14.375 36.0066 14.375 34.8034C14.375 33.6001 13.4516 32.6248 12.3125 32.6248C11.1734 32.6248 10.25 33.6001 10.25 34.8034C10.25 36.0066 11.1734 36.9819 12.3125 36.9819Z" stroke="#FFD200" stroke-width="2.5" stroke-miterlimit="10" stroke-linecap="round" stroke-linejoin="round"/>
<path d="M13.5498 12.582H33.3498" stroke="#FFD200" stroke-width="3" stroke-miterlimit="10" stroke-linecap="round" stroke-linejoin="round"/>
</svg>
