<svg width="133" height="42" viewBox="0 0 133 42" fill="none" xmlns="http://www.w3.org/2000/svg">
<path d="M55.3066 12.328C55.176 12.1973 54.9333 12.02 54.5786 11.796C54.2426 11.572 53.8226 11.3573 53.3186 11.152C52.8333 10.9467 52.3013 10.7693 51.7226 10.62C51.144 10.452 50.556 10.368 49.9586 10.368C48.9133 10.368 48.12 10.564 47.5786 10.956C47.056 11.348 46.7946 11.8987 46.7946 12.608C46.7946 13.1493 46.9626 13.5787 47.2986 13.896C47.6346 14.2133 48.1386 14.484 48.8106 14.708C49.4826 14.932 50.3226 15.1747 51.3306 15.436C52.6373 15.7533 53.7666 16.1453 54.7186 16.612C55.6893 17.06 56.4266 17.6573 56.9306 18.404C57.4533 19.132 57.7146 20.1027 57.7146 21.316C57.7146 22.38 57.5186 23.2947 57.1266 24.06C56.7346 24.8067 56.1933 25.4133 55.5026 25.88C54.812 26.3467 54.028 26.692 53.1506 26.916C52.2733 27.1213 51.34 27.224 50.3506 27.224C49.3613 27.224 48.372 27.1213 47.3826 26.916C46.3933 26.7107 45.4413 26.4213 44.5266 26.048C43.612 25.656 42.772 25.1893 42.0066 24.648L43.7146 21.316C43.8826 21.484 44.1813 21.708 44.6106 21.988C45.04 22.2493 45.5626 22.52 46.1786 22.8C46.7946 23.0613 47.4666 23.2853 48.1946 23.472C48.9226 23.6587 49.66 23.752 50.4066 23.752C51.452 23.752 52.2453 23.5747 52.7866 23.22C53.328 22.8653 53.5986 22.3613 53.5986 21.708C53.5986 21.1107 53.384 20.644 52.9546 20.308C52.5253 19.972 51.928 19.6827 51.1626 19.44C50.3973 19.1787 49.492 18.8987 48.4466 18.6C47.196 18.2453 46.1506 17.8533 45.3106 17.424C44.4706 16.976 43.8453 16.416 43.4346 15.744C43.024 15.072 42.8186 14.232 42.8186 13.224C42.8186 11.8613 43.136 10.7227 43.7706 9.808C44.424 8.87467 45.3013 8.17467 46.4026 7.708C47.504 7.22267 48.7266 6.98 50.0706 6.98C51.004 6.98 51.8813 7.08267 52.7026 7.288C53.5426 7.49333 54.3266 7.764 55.0546 8.1C55.7826 8.436 56.436 8.8 57.0146 9.192L55.3066 12.328ZM68.7344 26.244C68.417 26.3747 68.0344 26.524 67.5864 26.692C67.1384 26.86 66.653 26.9907 66.1304 27.084C65.6264 27.196 65.113 27.252 64.5904 27.252C63.8997 27.252 63.265 27.1307 62.6864 26.888C62.1077 26.6453 61.641 26.2627 61.2864 25.74C60.9504 25.1987 60.7824 24.4987 60.7824 23.64V15.212H58.8504V12.328H60.7824V7.568H64.5344V12.328H67.6144V15.212H64.5344V22.38C64.553 22.884 64.693 23.248 64.9544 23.472C65.2157 23.696 65.5424 23.808 65.9344 23.808C66.3264 23.808 66.709 23.7427 67.0824 23.612C67.4557 23.4813 67.7544 23.3693 67.9784 23.276L68.7344 26.244ZM77.3004 27.28C76.1057 27.28 75.0324 27.084 74.0804 26.692C73.1284 26.2813 72.3164 25.7213 71.6444 25.012C70.9911 24.3027 70.4871 23.4907 70.1324 22.576C69.7777 21.6613 69.6004 20.7 69.6004 19.692C69.6004 18.6653 69.7777 17.6947 70.1324 16.78C70.4871 15.8653 70.9911 15.0533 71.6444 14.344C72.3164 13.6347 73.1284 13.084 74.0804 12.692C75.0324 12.2813 76.1057 12.076 77.3004 12.076C78.4951 12.076 79.5591 12.2813 80.4924 12.692C81.4444 13.084 82.2564 13.6347 82.9284 14.344C83.6004 15.0533 84.1044 15.8653 84.4404 16.78C84.7951 17.6947 84.9724 18.6653 84.9724 19.692C84.9724 20.7 84.7951 21.6613 84.4404 22.576C84.1044 23.4907 83.6004 24.3027 82.9284 25.012C82.2751 25.7213 81.4724 26.2813 80.5204 26.692C79.5684 27.084 78.4951 27.28 77.3004 27.28ZM73.4644 19.692C73.4644 20.5507 73.6324 21.316 73.9684 21.988C74.3044 22.6413 74.7617 23.1547 75.3404 23.528C75.9191 23.9013 76.5724 24.088 77.3004 24.088C78.0097 24.088 78.6537 23.9013 79.2324 23.528C79.8111 23.136 80.2684 22.6133 80.6044 21.96C80.9591 21.288 81.1364 20.5227 81.1364 19.664C81.1364 18.824 80.9591 18.068 80.6044 17.396C80.2684 16.724 79.8111 16.2013 79.2324 15.828C78.6537 15.4547 78.0097 15.268 77.3004 15.268C76.5724 15.268 75.9191 15.464 75.3404 15.856C74.7617 16.2293 74.3044 16.752 73.9684 17.424C73.6324 18.0773 73.4644 18.8333 73.4644 19.692ZM94.3369 27.28C93.1422 27.28 92.0689 27.084 91.1169 26.692C90.1649 26.2813 89.3529 25.7213 88.6809 25.012C88.0089 24.284 87.4862 23.4627 87.1129 22.548C86.7582 21.6333 86.5809 20.672 86.5809 19.664C86.5809 18.2827 86.8889 17.0227 87.5049 15.884C88.1395 14.7267 89.0355 13.8027 90.1929 13.112C91.3502 12.4213 92.7222 12.076 94.3089 12.076C95.8955 12.076 97.2582 12.4213 98.3969 13.112C99.5355 13.8027 100.385 14.708 100.945 15.828L97.2769 16.948C96.9595 16.4067 96.5395 15.996 96.0169 15.716C95.4942 15.4173 94.9155 15.268 94.2809 15.268C93.5715 15.268 92.9182 15.4547 92.3209 15.828C91.7422 16.1827 91.2849 16.696 90.9489 17.368C90.6129 18.0213 90.4449 18.7867 90.4449 19.664C90.4449 20.5227 90.6129 21.288 90.9489 21.96C91.3035 22.6133 91.7702 23.136 92.3489 23.528C92.9275 23.9013 93.5715 24.088 94.2809 24.088C94.7289 24.088 95.1489 24.0133 95.5409 23.864C95.9515 23.7147 96.3155 23.5093 96.6329 23.248C96.9502 22.9867 97.1835 22.688 97.3329 22.352L101.001 23.472C100.665 24.2 100.17 24.8533 99.5169 25.432C98.8822 26.0107 98.1262 26.468 97.2489 26.804C96.3902 27.1213 95.4195 27.28 94.3369 27.28ZM113.334 27L109.05 20.672L107.062 22.632V27H103.31V6.56H107.062V18.936L112.97 12.356H116.946L111.486 18.572L117.338 27H113.334ZM119.231 29.856C119.567 29.9307 119.875 29.996 120.155 30.052C120.454 30.108 120.706 30.136 120.911 30.136C121.266 30.136 121.555 30.0427 121.779 29.856C122.022 29.688 122.255 29.3707 122.479 28.904C122.703 28.456 122.936 27.8213 123.179 27L117.383 12.328H121.275L125.223 23.164L128.695 12.328H132.279L126.119 29.912C125.895 30.5653 125.55 31.1533 125.083 31.676C124.635 32.2173 124.066 32.6373 123.375 32.936C122.703 33.2533 121.947 33.412 121.107 33.412C120.808 33.412 120.51 33.384 120.211 33.328C119.912 33.2907 119.586 33.216 119.231 33.104V29.856Z" fill="black"/>
<path d="M6.40292 25.9476C6.17192 28.7842 8.30042 31.2205 11.0064 31.2205H28.5789C30.9549 31.2205 33.0339 29.167 33.2154 26.6785L34.1064 13.6267C34.3044 10.7379 32.2254 8.38861 29.4699 8.38861H8.16844" stroke="#292D32" stroke-width="2.475" stroke-miterlimit="10" stroke-linecap="round" stroke-linejoin="round"/>
<path d="M1.86475 5.11719H4.73576C6.51776 5.11719 7.92025 6.73561 7.77175 8.59766L6.94675 19.1261" stroke="#292D32" stroke-width="2.475" stroke-miterlimit="10" stroke-linecap="round" stroke-linejoin="round"/>
<path d="M25.3772 39.9219C26.5164 39.9219 27.4397 38.948 27.4397 37.7466C27.4397 36.5451 26.5164 35.5713 25.3772 35.5713C24.238 35.5713 23.3147 36.5451 23.3147 37.7466C23.3147 38.948 24.238 39.9219 25.3772 39.9219Z" stroke="#292D32" stroke-width="2.475" stroke-miterlimit="10" stroke-linecap="round" stroke-linejoin="round"/>
<path d="M12.177 39.9219C13.3161 39.9219 14.2395 38.948 14.2395 37.7466C14.2395 36.5451 13.3161 35.5713 12.177 35.5713C11.0379 35.5713 10.1145 36.5451 10.1145 37.7466C10.1145 38.948 11.0379 39.9219 12.177 39.9219Z" stroke="#292D32" stroke-width="2.475" stroke-miterlimit="10" stroke-linecap="round" stroke-linejoin="round"/>
<path d="M13.4146 15.5586H33.2146" stroke="#FFD200" stroke-width="2.475" stroke-miterlimit="10" stroke-linecap="round" stroke-linejoin="round"/>
</svg>
